<svg width="192" height="192" viewBox="0 0 192 192" fill="none" xmlns="http://www.w3.org/2000/svg">
<rect width="192" height="192" rx="5" fill="#16A1EF"/>
<path d="M49.6992 123.86V69.86C49.6992 68.36 50.0592 67.19 50.7792 66.35C51.5592 65.45 52.5492 65 53.7492 65H68.7792C78.3192 65 85.5492 67.4 90.4692 72.2C95.4492 77 97.9392 84.56 97.9392 94.88C97.9392 116.96 88.5192 128 69.6792 128H54.2892C51.2292 128 49.6992 126.62 49.6992 123.86ZM66.9792 82.1V109.01C66.9792 110.27 67.0692 111.08 67.2492 111.44C67.4292 111.74 67.9692 111.89 68.8692 111.89C72.1692 111.89 74.6592 110.66 76.3392 108.2C78.0792 105.74 78.9492 101.66 78.9492 95.96C78.9492 90.2 78.0492 86.45 76.2492 84.71C74.5092 82.97 71.7192 82.1 67.8792 82.1H66.9792ZM108.578 122.69C104.858 118.55 102.998 112.82 102.998 105.5C102.998 98.18 104.858 92.45 108.578 88.31C112.358 84.17 117.428 82.1 123.788 82.1C130.148 82.1 135.188 84.17 138.908 88.31C142.628 92.45 144.488 98.18 144.488 105.5C144.488 112.82 142.628 118.55 138.908 122.69C135.188 126.83 130.148 128.9 123.788 128.9C117.428 128.9 112.358 126.83 108.578 122.69ZM123.788 97.13C120.428 97.13 118.748 99.89 118.748 105.41C118.748 110.93 120.428 113.69 123.788 113.69C127.208 113.69 128.918 110.93 128.918 105.41C128.918 99.89 127.208 97.13 123.788 97.13Z" fill="white"/>
</svg>
